<svg xmlns="http://www.w3.org/2000/svg" height="32" viewBox="0 0 32 32" width="32"><path d="m26 13h4v2h-4z" fill="#f5f5f5"/><path d="m23.1214 5.879h3.9999v1.9998h-3.9999z" transform="matrix(.70710678 -.70710678 .70710678 .70710678 2.4937 19.7783)" fill="#f5f5f5"/><path d="m24.1212 19.1214h1.9998v3.9999h-1.9998z" transform="matrix(.70710678 -.70710678 .70710678 .70710678 -7.5773 23.9496)" fill="#f5f5f5"/><path d="m17 2h2v4h-2z" fill="#f5f5f5"/><path d="m18 8a6.0365 6.0365 0 0 0 -1 .09v2.0518a3.9567 3.9567 0 0 1 1-.1418 4 4 0 0 1 0 8v2a6 6 0 0 0 0-12z" fill="#f5f5f5"/><path d="m10 20.1839v-13.1839h-2v13.1839a3 3 0 1 0 2 0z" fill="#f5f5f5"/><path d="m9 30a6.9931 6.9931 0 0 1 -5-11.8892v-11.1108a5 5 0 0 1 10 0v11.1108a6.9931 6.9931 0 0 1 -5 11.8892zm0-26a3.0033 3.0033 0 0 0 -3 3v11.9834l-.332.2983a5 5 0 1 0 6.664 0l-.332-.2983v-11.9834a3.0033 3.0033 0 0 0 -3-3z" fill="#f5f5f5"/><path d="m0 0h32v32h-32z" fill="none"/></svg>